<svg width="515" height="530" viewBox="0 0 515 530" fill="none" xmlns="http://www.w3.org/2000/svg">
<g opacity="0.8">
<path fill-rule="evenodd" clip-rule="evenodd" d="M83.21 62.958C130.75 71.9324 227.214 148.611 263.972 190.486C298.132 229.401 311.345 249.375 324.648 306.471C337.408 361.235 324.321 447.28 321.062 504.142C316.886 577.013 355.414 679.912 309.342 718.42C261.948 758.032 203.17 686.275 148.579 666.7C112.289 653.688 77.7602 643.994 43.5056 623.1C0.883725 597.102 -58.4808 588.983 -74.9188 530.375C-91.3333 471.849 -37.8493 420.576 -30.468 359.348C-21.3839 283.988 -65.4886 191.697 -27.3162 135.498C9.65309 81.0705 28.2074 52.5751 83.21 62.958Z" fill="url(#paint0_linear_1_495)" fill-opacity="0.3"/>
<path fill-rule="evenodd" clip-rule="evenodd" d="M66.7867 175.082C108.896 175.166 150.55 187.407 186.293 217.953C219.51 246.34 241.462 291.03 258.219 338.678C274.293 384.379 259.576 424.602 261.927 474.743C264.94 539.002 310.318 630.069 273.811 671.173C236.255 713.457 178.664 660.428 129.464 652.245C96.758 646.804 65.8835 643.972 34.2275 631.325C-5.16138 615.588 -57.4639 618.176 -77.0816 569.721C-96.6723 521.333 -54.8906 467.883 -54.0591 413.259C-53.0363 346.029 -99.7544 272.693 -71.7202 217.44C-44.5701 163.93 18.0671 174.985 66.7867 175.082Z" fill="url(#paint1_linear_1_495)" fill-opacity="0.4"/>
<path opacity="0.4" fill-rule="evenodd" clip-rule="evenodd" d="M76.371 273.849C115.365 288.12 151.644 313.402 178.997 353.5C204.416 390.763 216.326 439.201 222.867 488.604C229.141 535.987 222.688 581.694 215.414 628.531C206.09 688.553 216.195 773.74 174.626 799.178C131.865 825.346 88.5112 757.237 44.4765 733.137C15.2047 717.117 -12.8625 704.11 -39.8031 681.825C-73.325 654.095 -122.264 638.843 -131.303 587.735C-140.329 536.697 -91.5467 501.701 -80.4787 451.822C-66.8563 390.432 -96.3092 307.342 -59.9225 266.054C-24.6835 226.07 31.2572 257.336 76.371 273.849Z" fill="url(#paint2_linear_1_495)" fill-opacity="0.6"/>
</g>
<defs>
<linearGradient id="paint0_linear_1_495" x1="-15.6874" y1="637.041" x2="229.351" y2="204.828" gradientUnits="userSpaceOnUse">
<stop stop-color="#9EE6F7" stop-opacity="0"/>
<stop offset="1" stop-color="#9EE6F7" stop-opacity="0.46"/>
</linearGradient>
<linearGradient id="paint1_linear_1_495" x1="-26.2834" y1="649.344" x2="126.695" y2="224.941" gradientUnits="userSpaceOnUse">
<stop stop-color="#9EE6F7" stop-opacity="0"/>
<stop offset="1" stop-color="#9EE6F7" stop-opacity="0.46"/>
</linearGradient>
<linearGradient id="paint2_linear_1_495" x1="-99.2555" y1="677.973" x2="148.281" y2="359.916" gradientUnits="userSpaceOnUse">
<stop stop-color="#005AE2"/>
<stop offset="1" stop-color="#73E6FF" stop-opacity="0.38"/>
</linearGradient>
</defs>
</svg>
